# xmcd
#
# Track frame offsets:
#	150
#	12552
#	25456
#	38088
#	51374
#	64580
#	73456
#	93886
#	106239
#	125808
#	139823
#	150884
#	165898
#	181470
#	193035
#	202296
#	219911
#
# Disc length: 3106 seconds
#
# Revision: 1
# Processed by: cddbd v1.5.2PL0 Copyright (c) Steve Scherf et al.
# Submitted via: audiograbber 1.83.01
#
DISCID=f50c2011
DTITLE=Cash, Johnny - CB5050-01
DYEAR=1900
DGENRE=Karaoke
TTITLE0=I Walk The Line
TTITLE1=Long-Legged Guitar Pickin' Man
TTITLE2=Thing Called Love, A
TTITLE3=Flesh and Blood
TTITLE4=Home Of The Blues
TTITLE5=Wreck Of The Old '97, The
TTITLE6=One Piece At A Time
TTITLE7=Seasons Of My Heart
TTITLE8=Ballad Of Ira Hayes, The
TTITLE9=One On The Right Is On The Left, The
TTITLE10=Ballad Of A Teenage Queen
TTITLE11=Don't Take Your Gun To Town
TTITLE12=It Ain't Me Babe
TTITLE13=Hey Porter
TTITLE14=Five Feet High and Rising
TTITLE15=Hurt
TTITLE16=What Is Truth
EXTD=
EXTT0=
EXTT1=
EXTT2=
EXTT3=
EXTT4=
EXTT5=
EXTT6=
EXTT7=
EXTT8=
EXTT9=
EXTT10=
EXTT11=
EXTT12=
EXTT13=
EXTT14=
EXTT15=
EXTT16=
PLAYORDER=
